<svg id="broken_mug" data-name="broken mug" xmlns="http://www.w3.org/2000/svg" viewBox="0 0 342.69 285.15">
  <defs>
    <style>
      .cls-1 {
        fill: #ffb176;
      }

      .cls-2 {
        fill: #be6e20;
      }

      .cls-3 {
        fill: #b55a0f;
      }

      .cls-4 {
        fill: #ff80ba;
      }
    </style>
  </defs>
  <title>error-mug</title>
  <path class="cls-1" d="M271.13,293.81A31.92,31.92,0,0,0,244.88,301a32,32,0,0,0-48.73-8.28A32,32,0,0,0,147.5,284a32,32,0,1,0-7,40.21,32,32,0,0,0,48.73,8.28,32,32,0,0,0,48.65,8.74A32,32,0,1,0,271.13,293.81Z" transform="translate(-87.74 -242.6)"/>
  <path class="cls-2" d="M310.1,267.52a31.92,31.92,0,0,0-22,16,32,32,0,0,0-48.52,9.45,32,32,0,0,0-48.61,9,32,32,0,1,0,7.61,40.1,32,32,0,0,0,48.52-9.45,32,32,0,0,0,48.61-9A32,32,0,1,0,310.1,267.52Z" transform="translate(-87.74 -242.6)"/>
  <path class="cls-3" d="M320.36,346.64a31.92,31.92,0,0,0-26.23-7.22,32,32,0,0,0-37.7-32A32,32,0,0,0,219,275.1a32,32,0,1,0-26.55,31,32,32,0,0,0,37.7,32,32,32,0,0,0,37.39,32.33A32,32,0,1,0,320.36,346.64Z" transform="translate(-87.74 -242.6)"/>
  <g>
    <path class="cls-3" d="M218.34,521.15c-58.19,0-73.85-8.09-74.59-8.49,3.16,11.6,30.82,15.09,74.59,15.09s71.43-3.48,74.59-15.09C292.19,513.06,276.53,521.15,218.34,521.15Z" transform="translate(-87.74 -242.6)"/>
    <path class="cls-2" d="M430.43,348.59c0-34.2-17.86-48.46-43.78-48.46-18.56,0-30.65,8.17-37.65,19.28V302.63c0-7.11-67-10.4-130.5-10.4S88,295.52,88,302.63v1.44h0V418.74a106.84,106.84,0,0,0,55.75,93.91s14.94,8.5,74.6,8.5,74.61-8.5,74.61-8.5A107.09,107.09,0,0,0,345.75,444C379.27,439.61,430.43,409.71,430.43,348.59ZM349,418.93V382.68c1-34.75,14-52.1,37.65-52.1,18.74,0,25.46,7.92,25.46,30C412.11,394.58,377,413.88,349,418.93Z" transform="translate(-87.74 -242.6)"/>
  </g>
  <path class="cls-4" d="M218.34,521.15c-58.19,0-73.85-8.09-74.59-8.49,3.16,11.6,30.82,15.09,74.59,15.09s71.43-3.48,74.59-15.09C292.19,513.06,276.53,521.15,218.34,521.15Z" transform="translate(-87.74 -242.6)"/>
  <g>
    <polygon class="cls-1" points="99.19 79.66 70.59 107.59 42.33 79.33 28.19 93.47 56.29 121.56 27.86 149.33 41.84 163.63 70.43 135.71 98.69 163.97 112.83 149.82 84.74 121.73 113.16 93.97 99.19 79.66"/>
    <rect class="cls-1" x="278.25" y="314.4" width="20" height="99.7" transform="translate(-260.88 67.91) rotate(-45)"/>
  </g>
  <rect class="cls-1" x="238.4" y="354.25" width="99.7" height="20" transform="translate(-260.21 62.49) rotate(-44.33)"/>
  <path class="cls-4" d="M162.42,468.19l-14.78-13.48a103.33,103.33,0,0,1,149.43-3.44l-14.14,14.14A83.33,83.33,0,0,0,162.42,468.19Z" transform="translate(-87.74 -242.6)"/>
</svg>
