<svg id="mug_ice_cream" data-name="mug ice cream" xmlns="http://www.w3.org/2000/svg" viewBox="0 0 357.17 487.47">
  <defs>
    <style>
      .cls-1 {
        fill: #ffb176;
      }

      .cls-2 {
        fill: #b55a0f;
      }

      .cls-3 {
        fill: #f7e289;
      }

      .cls-4 {
        fill: #be6e20;
      }

      .cls-5 {
        fill: #ffbdd3;
      }

      .cls-6 {
        fill: #ff80ba;
      }
    </style>
  </defs>
  <title>loading-bg</title>
  <g>
    <circle class="cls-1" cx="231.17" cy="129.19" r="88.89" transform="translate(-99.82 28.04) rotate(-15.91)"/>
    <path class="cls-2" d="M306.81,146.84a29,29,0,0,0-18.66,16.27A29.08,29.08,0,0,0,245,175.64a29.08,29.08,0,0,0-43.31,12.12,29.1,29.1,0,1,0,10.18,35.71A29.08,29.08,0,0,0,255,210.94a29.08,29.08,0,0,0,43.31-12.12A29.1,29.1,0,1,0,306.81,146.84Z" transform="translate(-73.26 -40.28)"/>
    <path class="cls-3" d="M170.67,88.69a26.83,26.83,0,0,0,.37,12.87,5.54,5.54,0,0,0,10.72-.14l0.08-.3a26.72,26.72,0,0,1,23.23-19.31q1-.08,1.95-0.1c5.62-.08,7.86-7.39,3-10.24A26.56,26.56,0,0,0,170.67,88.69Z" transform="translate(-73.26 -40.28)"/>
  </g>
  <g>
    <circle class="cls-4" cx="170.99" cy="218.11" r="97.71" transform="translate(-126.5 14.95) rotate(-15.91)"/>
    <path class="cls-2" d="M254.13,237.51a31.92,31.92,0,0,0-20.51,17.88,32,32,0,0,0-47.47,13.78,32,32,0,0,0-47.6,13.32,32,32,0,1,0,11.19,39.26A32,32,0,0,0,197.21,308a32,32,0,0,0,47.6-13.32A32,32,0,1,0,254.13,237.51Z" transform="translate(-73.26 -40.28)"/>
    <g>
      <rect class="cls-3" x="92.25" y="196.18" width="15.99" height="15.99" rx="2.98" ry="2.98" transform="translate(-27.87 -56.85) rotate(12.19)"/>
      <path class="cls-3" d="M104.49,173.59a29.49,29.49,0,0,0,.4,14.15,6.09,6.09,0,0,0,11.78-.15l0.09-.33A29.37,29.37,0,0,1,142.3,166q1.08-.09,2.14-0.11c6.17-.09,8.64-8.13,3.31-11.25A29.2,29.2,0,0,0,104.49,173.59Z" transform="translate(-73.26 -40.28)"/>
    </g>
  </g>
  <g>
    <circle class="cls-2" cx="293.7" cy="216.5" r="97.71" transform="translate(-82.92 378.97) rotate(-70.15)"/>
    <path class="cls-2" d="M349.83,280.82a31.92,31.92,0,0,0-27.09,2.53,32,32,0,0,0-46.57-16.56,32,32,0,0,0-46.42-17,32,32,0,1,0-13.86,38.39,32,32,0,0,0,46.58,16.56,32,32,0,0,0,46.42,17A32,32,0,1,0,349.83,280.82Z" transform="translate(-73.26 -40.28)"/>
    <g>
      <rect class="cls-3" x="236.44" y="155.86" width="15.99" height="15.99" rx="2.98" ry="2.98" transform="translate(129.13 -167.68) rotate(47.95)"/>
      <path class="cls-3" d="M265.75,141.51a29.49,29.49,0,0,0-7.94,11.71,6.09,6.09,0,0,0,9.65,6.77l0.26-.21a29.37,29.37,0,0,1,33.12-2.3q0.93,0.55,1.8,1.16c5.06,3.53,11.76-1.55,9.26-7.2A29.2,29.2,0,0,0,265.75,141.51Z" transform="translate(-73.26 -40.28)"/>
    </g>
  </g>
  <g>
    <path class="cls-5" d="M218.34,521.15c-58.19,0-73.85-8.09-74.59-8.49,3.16,11.6,30.82,15.09,74.59,15.09s71.43-3.48,74.59-15.09C292.19,513.06,276.53,521.15,218.34,521.15Z" transform="translate(-73.26 -40.28)"/>
    <path class="cls-6" d="M430.43,348.59c0-34.2-17.86-48.46-43.78-48.46-18.56,0-30.65,8.17-37.65,19.28V302.63c0-7.11-67-10.4-130.5-10.4S88,295.52,88,302.63v1.44h0V418.74a106.84,106.84,0,0,0,55.75,93.91s14.94,8.5,74.6,8.5,74.61-8.5,74.61-8.5A107.09,107.09,0,0,0,345.75,444C379.27,439.61,430.43,409.71,430.43,348.59ZM349,418.93V382.68c1-34.75,14-52.1,37.65-52.1,18.74,0,25.46,7.92,25.46,30C412.11,394.58,377,413.88,349,418.93Z" transform="translate(-73.26 -40.28)"/>
  </g>
</svg>
