<svg id="mug_ice_cream" data-name="mug ice cream" xmlns="http://www.w3.org/2000/svg" viewBox="0 0 357.17 583.56">
  <defs>
    <style>
      .cls-1 {
        fill: #ffb176;
      }

      .cls-2 {
        fill: #b55a0f;
      }

      .cls-3 {
        fill: #f7e289;
      }

      .cls-4 {
        fill: #be6e20;
      }

      .cls-5 {
        fill: #ffbdd3;
      }

      .cls-6 {
        fill: #ff80ba;
      }

      .cls-7 {
        fill: #c1272d;
      }
    </style>
  </defs>
  <title>loading-bg</title>
  <g>
    <circle class="cls-1" cx="231.17" cy="129.19" r="88.89" transform="translate(-99.82 28.04) rotate(-15.91)"/>
    <path class="cls-2" d="M306.81,146.84a29,29,0,0,0-18.66,16.27A29.08,29.08,0,0,0,245,175.64a29.08,29.08,0,0,0-43.31,12.12,29.1,29.1,0,1,0,10.18,35.71A29.08,29.08,0,0,0,255,210.94a29.08,29.08,0,0,0,43.31-12.12A29.1,29.1,0,1,0,306.81,146.84Z" transform="translate(-73.26 -40.28)"/>
    <path class="cls-3" d="M170.67,88.69a26.83,26.83,0,0,0,.37,12.87,5.54,5.54,0,0,0,10.72-.14l0.08-.3a26.72,26.72,0,0,1,23.23-19.31q1-.08,1.95-0.1c5.62-.08,7.86-7.39,3-10.24A26.56,26.56,0,0,0,170.67,88.69Z" transform="translate(-73.26 -40.28)"/>
  </g>
  <g>
    <circle class="cls-4" cx="170.99" cy="218.11" r="97.71" transform="translate(-126.5 14.95) rotate(-15.91)"/>
    <path class="cls-2" d="M254.13,237.51a31.92,31.92,0,0,0-20.51,17.88,32,32,0,0,0-47.47,13.78,32,32,0,0,0-47.6,13.32,32,32,0,1,0,11.19,39.26A32,32,0,0,0,197.21,308a32,32,0,0,0,47.6-13.32A32,32,0,1,0,254.13,237.51Z" transform="translate(-73.26 -40.28)"/>
    <g>
      <rect class="cls-3" x="92.25" y="196.18" width="15.99" height="15.99" rx="2.98" ry="2.98" transform="translate(-27.87 -56.85) rotate(12.19)"/>
      <path class="cls-3" d="M104.49,173.59a29.49,29.49,0,0,0,.4,14.15,6.09,6.09,0,0,0,11.78-.15l0.09-.33A29.37,29.37,0,0,1,142.3,166q1.08-.09,2.14-0.11c6.17-.09,8.64-8.13,3.31-11.25A29.2,29.2,0,0,0,104.49,173.59Z" transform="translate(-73.26 -40.28)"/>
    </g>
  </g>
  <g>
    <circle class="cls-2" cx="293.7" cy="216.5" r="97.71" transform="translate(-82.92 378.97) rotate(-70.15)"/>
    <path class="cls-2" d="M349.83,280.82a31.92,31.92,0,0,0-27.09,2.53,32,32,0,0,0-46.57-16.56,32,32,0,0,0-46.42-17,32,32,0,1,0-13.86,38.39,32,32,0,0,0,46.58,16.56,32,32,0,0,0,46.42,17A32,32,0,1,0,349.83,280.82Z" transform="translate(-73.26 -40.28)"/>
    <g>
      <rect class="cls-3" x="236.44" y="155.86" width="15.99" height="15.99" rx="2.98" ry="2.98" transform="translate(129.13 -167.68) rotate(47.95)"/>
      <path class="cls-3" d="M265.75,141.51a29.49,29.49,0,0,0-7.94,11.71,6.09,6.09,0,0,0,9.65,6.77l0.26-.21a29.37,29.37,0,0,1,33.12-2.3q0.93,0.55,1.8,1.16c5.06,3.53,11.76-1.55,9.26-7.2A29.2,29.2,0,0,0,265.75,141.51Z" transform="translate(-73.26 -40.28)"/>
    </g>
  </g>
  <g>
    <path class="cls-5" d="M218.34,521.15c-58.19,0-73.85-8.09-74.59-8.49,3.16,11.6,30.82,15.09,74.59,15.09s71.43-3.48,74.59-15.09C292.19,513.06,276.53,521.15,218.34,521.15Z" transform="translate(-73.26 -40.28)"/>
    <path class="cls-6" d="M430.43,348.59c0-34.2-17.86-48.46-43.78-48.46-18.56,0-30.65,8.17-37.65,19.28V302.63c0-7.11-67-10.4-130.5-10.4S88,295.52,88,302.63v1.44h0V418.74a106.84,106.84,0,0,0,55.75,93.91s14.94,8.5,74.6,8.5,74.61-8.5,74.61-8.5A107.09,107.09,0,0,0,345.75,444C379.27,439.61,430.43,409.71,430.43,348.59ZM349,418.93V382.68c1-34.75,14-52.1,37.65-52.1,18.74,0,25.46,7.92,25.46,30C412.11,394.58,377,413.88,349,418.93Z" transform="translate(-73.26 -40.28)"/>
  </g>
  <g>
    <path class="cls-7" d="M102.13,551.45A17.53,17.53,0,0,0,94,557.89a18.78,18.78,0,0,0-2.88,10.71A14.06,14.06,0,0,0,91.3,571a11.51,11.51,0,0,0,.37,1.52,5.2,5.2,0,0,0,.37.89,1.15,1.15,0,0,1,.17.54,14.59,14.59,0,0,1-3.62-.4A6.43,6.43,0,0,1,86,572.28a5.71,5.71,0,0,1-1.62-2.37,10.07,10.07,0,0,1-.56-3.58,12.52,12.52,0,0,1,1.13-5.15A19.27,19.27,0,0,1,88,556.37a27.86,27.86,0,0,1,4.65-4.21,33.56,33.56,0,0,1,5.73-3.35,34,34,0,0,1,6.39-2.19,28.67,28.67,0,0,1,6.64-.79q0.88,0,1.63.06l1.52,0.13-12.12,56.54a21,21,0,0,1,4.1,1.4q2.06,0.94,4.17,2.08l4.29,2.31q2.17,1.17,4.42,2.15a31.1,31.1,0,0,0,4.62,1.6,19.21,19.21,0,0,0,4.87.62,20,20,0,0,0,3.25-.27,14.89,14.89,0,0,0,3.37-1,29.23,29.23,0,0,1-1.06,5.13,16,16,0,0,1-1.75,3.91,8,8,0,0,1-2.4,2.48,5.46,5.46,0,0,1-3,.87,12.54,12.54,0,0,1-5.54-1.33,37.22,37.22,0,0,1-5.48-3.31q-2.75-2-5.56-4.31a70.3,70.3,0,0,0-5.77-4.31,36.12,36.12,0,0,0-6.13-3.31A17.14,17.14,0,0,0,92.21,606H91.32a6,6,0,0,0-.92.08Z" transform="translate(-73.26 -40.28)"/>
    <path class="cls-7" d="M147.14,552.48a12.64,12.64,0,0,0-3.52,3.37,35.79,35.79,0,0,0-3.25,5.35,59.45,59.45,0,0,0-2.83,6.66q-1.29,3.6-2.23,7.31a71.09,71.09,0,0,0-1.46,7.31,46.77,46.77,0,0,0-.52,6.64,23.17,23.17,0,0,0,.27,3.67,11.65,11.65,0,0,0,.81,2.88,4.78,4.78,0,0,0,1.4,1.89,3.31,3.31,0,0,0,2.1.67,6.48,6.48,0,0,0,4-1.54,19,19,0,0,0,3.83-4.19,38.17,38.17,0,0,0,3.42-6.17,57.45,57.45,0,0,0,2.73-7.5,68,68,0,0,0,1.83-8.17,51.41,51.41,0,0,0,.67-8.16,39.68,39.68,0,0,0-.4-6,11.07,11.07,0,0,0-1.52-4.33,6.86,6.86,0,0,0-3.08-2.6,12.67,12.67,0,0,0-5.08-.87,26.47,26.47,0,0,0-8.62,1.4,22.38,22.38,0,0,0-7.25,4,19.48,19.48,0,0,0-5,6.39,18.87,18.87,0,0,0-1.85,8.44,10.35,10.35,0,0,0,.13,1.86A11.22,11.22,0,0,0,122,572a4.65,4.65,0,0,0,.27.71,1.13,1.13,0,0,1,.13.5,10,10,0,0,1-5.87-1.5q-2.1-1.5-2.1-5.12a13.1,13.1,0,0,1,1.19-5.42,19.65,19.65,0,0,1,3.35-5.06,28.32,28.32,0,0,1,5.1-4.42,35.24,35.24,0,0,1,6.48-3.48,42.22,42.22,0,0,1,7.5-2.29,39.63,39.63,0,0,1,8.12-.83,22.52,22.52,0,0,1,8.75,1.5,14.61,14.61,0,0,1,5.75,4.17,16.61,16.61,0,0,1,3.17,6.39,31.61,31.61,0,0,1,1,8.1,53.2,53.2,0,0,1-2.94,17,49.86,49.86,0,0,1-3.85,8.42,31.66,31.66,0,0,1-5.56,7.15,25.94,25.94,0,0,1-7.39,5,22.46,22.46,0,0,1-9.31,1.87,18.18,18.18,0,0,1-5.69-.85,11.11,11.11,0,0,1-4.46-2.73,12.58,12.58,0,0,1-2.92-4.9,22.67,22.67,0,0,1-1-7.33,48.83,48.83,0,0,1,.6-7.17,61.36,61.36,0,0,1,1.79-8.08,59,59,0,0,1,3-8,34.65,34.65,0,0,1,4.15-7,20.52,20.52,0,0,1,5.33-4.89,12,12,0,0,1,6.5-1.85,17.14,17.14,0,0,1,2,.12A8.83,8.83,0,0,1,147.14,552.48Z" transform="translate(-73.26 -40.28)"/>
    <path class="cls-7" d="M196.37,604.14l6-28.58a31.14,31.14,0,0,0-5.48-2,33.2,33.2,0,0,0-5.06-.85q-2.23,4.81-4.1,9.89t-3.23,9.87q-1.36,4.79-2.13,9a41,41,0,0,0-.77,7.27,9.56,9.56,0,0,0,.33,2.87,5.05,5.05,0,0,0,.75,1.52q-1.58,0-3.4-.15a9.49,9.49,0,0,1-3.42-.94,6.54,6.54,0,0,1-2.65-2.48,9,9,0,0,1-1.06-4.77,29.08,29.08,0,0,1,.83-6.27,64.7,64.7,0,0,1,2.37-7.87q1.54-4.21,3.65-8.81t4.73-9.1a21,21,0,0,0-6.1,1.14,5,5,0,0,0-3.14,2.94,1.11,1.11,0,0,1,.67.79,3.94,3.94,0,0,1,.37,1.67,2.55,2.55,0,0,1-1.29,2.25,5.68,5.68,0,0,1-3.14.83,6.15,6.15,0,0,1-1.92-.29,4.46,4.46,0,0,1-1.54-.85,3.92,3.92,0,0,1-1-1.42,4.93,4.93,0,0,1-.38-2,6.56,6.56,0,0,1,1.21-3.77,10.76,10.76,0,0,1,3.37-3.08,19.11,19.11,0,0,1,5.1-2.08,25.26,25.26,0,0,1,6.4-.77q1.62,0,4.12.23a103.34,103.34,0,0,1,6.35-8.94,60.16,60.16,0,0,1,6.89-7.39,35,35,0,0,1,7.12-5,15.15,15.15,0,0,1,7-1.87,23.36,23.36,0,0,1,3.1.23,11,11,0,0,1,3.14.88l-12.35,58H196.37Zm11.35-53.51a16.5,16.5,0,0,0-3.6,2.75,34,34,0,0,0-3.62,4.23q-1.79,2.44-3.56,5.42t-3.42,6.29q2.38,0.46,4.85,1.14a44.36,44.36,0,0,1,4.77,1.6Z" transform="translate(-73.26 -40.28)"/>
    <path class="cls-7" d="M225.61,604.14L236.3,554,248,552.48l-9.46,44.16a7.52,7.52,0,0,0,4.5,1.58,7.38,7.38,0,0,0,4.39-1.46,15.07,15.07,0,0,0,3.71-4,30.53,30.53,0,0,0,3-5.91,54.7,54.7,0,0,0,2.21-7.25,68.86,68.86,0,0,0,1.37-8,72.26,72.26,0,0,0,.46-8.1,24.58,24.58,0,0,0-.83-6.83,12.43,12.43,0,0,0-2.35-4.62,9,9,0,0,0-3.63-2.62,12.8,12.8,0,0,0-4.69-.83,24.73,24.73,0,0,0-8.15,1.31,19,19,0,0,0-6.54,3.79,17.56,17.56,0,0,0-4.35,6,19.54,19.54,0,0,0-1.58,8,14.06,14.06,0,0,0,.17,2.44,10.73,10.73,0,0,0,.37,1.5,5.39,5.39,0,0,0,.37.87,1.14,1.14,0,0,1,.17.54,10.22,10.22,0,0,1-6.19-1.65q-2.23-1.65-2.23-5.65a13.91,13.91,0,0,1,1.06-5.29,18.63,18.63,0,0,1,3-4.9,25,25,0,0,1,4.62-4.25,32.12,32.12,0,0,1,5.94-3.37,35.79,35.79,0,0,1,7-2.21,37.27,37.27,0,0,1,7.73-.79,25.55,25.55,0,0,1,6.85.85,19.47,19.47,0,0,1,5.39,2.37,16.79,16.79,0,0,1,4,3.62,19.45,19.45,0,0,1,2.73,4.62,24.92,24.92,0,0,1,1.56,5.39,34.12,34.12,0,0,1,.5,5.87,51.52,51.52,0,0,1-.81,9,56.72,56.72,0,0,1-2.25,8.69,47.73,47.73,0,0,1-3.46,7.75,33.59,33.59,0,0,1-4.44,6.25,20.37,20.37,0,0,1-5.17,4.17,11.59,11.59,0,0,1-5.67,1.52,12.09,12.09,0,0,1-4.69-1,18.82,18.82,0,0,1-4.92-3.19l-0.65,3.15H225.61Z" transform="translate(-73.26 -40.28)"/>
    <path class="cls-7" d="M277.84,604.14l11.39-53.51a17.51,17.51,0,0,0-8.12,6.46,18.87,18.87,0,0,0-2.89,10.73,14,14,0,0,0,.17,2.44,10.72,10.72,0,0,0,.37,1.5,5.34,5.34,0,0,0,.37.87,1.13,1.13,0,0,1,.17.54,14.66,14.66,0,0,1-3.61-.4,6.59,6.59,0,0,1-2.64-1.29,5.54,5.54,0,0,1-1.62-2.35,10.2,10.2,0,0,1-.56-3.62,12.51,12.51,0,0,1,1.13-5.15,19.25,19.25,0,0,1,3.12-4.81,27.35,27.35,0,0,1,4.65-4.19,34.3,34.3,0,0,1,12.12-5.52,28.67,28.67,0,0,1,6.63-.79q0.89,0,1.64,0c0.5,0,1,.06,1.52.12l-12.54,58.93H277.84Z" transform="translate(-73.26 -40.28)"/>
    <path class="cls-7" d="M356.54,545.21L343.7,604.14H332.81l-9.12-39.08-9,39.08h-7.46l11.85-54a15.87,15.87,0,0,0-8.19,6,17.1,17.1,0,0,0-2.73,9.81,18,18,0,0,0,.56,4.64,9.62,9.62,0,0,0,1.56,3.4q-5,0-7.44-2.06t-2.4-6.48a17.15,17.15,0,0,1,.87-5.42,20,20,0,0,1,2.42-4.92,21.59,21.59,0,0,1,3.75-4.21,24.33,24.33,0,0,1,4.85-3.27A26,26,0,0,1,318,545.5a26.42,26.42,0,0,1,6.35-.75,17.94,17.94,0,0,1,3.21.25,20.4,20.4,0,0,1,3,.83l9.5,42.16,8.81-42.77h7.65Z" transform="translate(-73.26 -40.28)"/>
    <path class="cls-7" d="M395.59,571.22l-5.77,26.46a60.17,60.17,0,0,1-3,10.17,27.55,27.55,0,0,1-4.1,7.1,14.88,14.88,0,0,1-5.29,4.15,15.83,15.83,0,0,1-6.62,1.35,16.71,16.71,0,0,1-5.23-.77,11.78,11.78,0,0,1-4-2.19,9.91,9.91,0,0,1-2.6-3.4,10.21,10.21,0,0,1-.92-4.37,11,11,0,0,1,.83-4.29,11.12,11.12,0,0,1,2.25-3.46,10.37,10.37,0,0,1,7.54-3.17,7.57,7.57,0,0,1,4.86,1.46,4.81,4.81,0,0,1,1.83,4,5,5,0,0,1-.84,3,4.87,4.87,0,0,0-1.94-1.5,6.22,6.22,0,0,0-2.56-.54,5.68,5.68,0,0,0-2.17.4,4.87,4.87,0,0,0-1.69,1.15,5.2,5.2,0,0,0-1.1,1.79,7.08,7.08,0,0,0,0,4.6,5.5,5.5,0,0,0,1.06,1.81,4.74,4.74,0,0,0,1.62,1.17,5,5,0,0,0,2.06.42,5.86,5.86,0,0,0,4.69-2.44,17.84,17.84,0,0,0,3-7.25l3.92-17.42h-0.31a15.08,15.08,0,0,1-5.17,4.56,14.72,14.72,0,0,1-12.94.19,13.66,13.66,0,0,1-4.79-4,19,19,0,0,1-3.06-6.29,29.38,29.38,0,0,1-1.08-8.23,34.66,34.66,0,0,1,1-8.4,32.52,32.52,0,0,1,2.85-7.48,30,30,0,0,1,4.44-6.27,28.21,28.21,0,0,1,5.81-4.81,27.45,27.45,0,0,1,14.67-4.15,22.52,22.52,0,0,1,6,.75,13.78,13.78,0,0,1,4.58,2.15,9.49,9.49,0,0,1,2.89,3.42,10.81,10.81,0,0,1,.56,7.6,7.25,7.25,0,0,1-1.23,2.37,5.45,5.45,0,0,1-4.33,2.06,6.28,6.28,0,0,1-2.77-.63,5.93,5.93,0,0,1-2.19-1.83,5.66,5.66,0,0,0,1.31-1.25,9.35,9.35,0,0,0,1.08-1.77,11.19,11.19,0,0,0,.73-2.06,8.82,8.82,0,0,0,.27-2.15,4.82,4.82,0,0,0-1.37-3.67,5.47,5.47,0,0,0-3.9-1.29,10.5,10.5,0,0,0-4.62,1.1,16.87,16.87,0,0,0-4.29,3,25.34,25.34,0,0,0-3.75,4.6,33.36,33.36,0,0,0-3,5.81,37.7,37.7,0,0,0-2.64,13.83q0,6,1.87,9.06a6,6,0,0,0,5.44,3.1q4.31,0,7.52-4.44t5.25-13.14Z" transform="translate(-73.26 -40.28)"/>
  </g>
</svg>
